<svg width="18" height="18" viewBox="0 0 18 18" fill="none" xmlns="http://www.w3.org/2000/svg">
<g id="19382230491553666157" clip-path="url(#clip0_419_3456)">
<path id="Vector" d="M9.57285 17.2562V15.5103L11.2096 15.5C11.3642 15.5 11.5124 15.4386 11.6216 15.3294C11.7309 15.2201 11.7923 15.0719 11.7923 14.9174C11.7923 14.7628 11.7309 14.6146 11.6216 14.5054C11.5124 14.3961 11.3642 14.3347 11.2096 14.3347L9.58314 14.3347L9.58314 11.3246C10.992 11.1754 12.2899 10.4914 13.2093 9.41358C14.1287 8.33575 14.5996 6.94625 14.5249 5.5315C14.4502 4.11675 13.8356 2.78458 12.8078 1.80958C11.7799 0.834578 10.4172 0.291061 9.00049 0.291061C7.58378 0.291062 6.22105 0.834579 5.19321 1.80958C4.16537 2.78458 3.55075 4.11675 3.47604 5.5315C3.40133 6.94625 3.87223 8.33575 4.79166 9.41358C5.7111 10.4914 7.009 11.1754 8.41783 11.3246L8.41783 14.3347L6.79134 14.3347C6.63681 14.3347 6.48861 14.3961 6.37934 14.5054C6.27007 14.6146 6.20869 14.7628 6.20869 14.9174C6.20869 15.0719 6.27007 15.2201 6.37934 15.3294C6.48861 15.4386 6.63681 15.5 6.79134 15.5L8.41783 15.5L8.41783 17.2459C8.43472 17.3864 8.50219 17.516 8.60764 17.6104C8.71309 17.7048 8.8493 17.7575 8.99082 17.7588C9.13233 17.76 9.26946 17.7097 9.37658 17.6172C9.48369 17.5247 9.55346 17.3964 9.57285 17.2562ZM4.63161 5.82542C4.63148 4.96155 4.88753 4.11705 5.36739 3.39872C5.84724 2.68038 6.52934 2.12049 7.32742 1.78984C8.1255 1.45919 9.00371 1.37264 9.85098 1.54114C10.6983 1.70964 11.4765 2.12562 12.0874 2.73647C12.6982 3.34731 13.1142 4.12559 13.2827 4.97286C13.4512 5.82014 13.3646 6.69835 13.034 7.49644C12.7033 8.29452 12.1434 8.97663 11.4251 9.45648C10.7068 9.93634 9.86229 10.1924 8.99843 10.1923C7.84033 10.1921 6.72971 9.73196 5.91081 8.91305C5.09191 8.09415 4.63178 6.98353 4.63161 5.82542Z" fill="#2F80ED"/>
</g>
<defs>
<clipPath id="clip0_419_3456">
<rect width="18" height="18" fill="white"/>
</clipPath>
</defs>
</svg>
