<svg width="22" height="22" viewBox="0 0 22 22" fill="none" xmlns="http://www.w3.org/2000/svg">
<path fill-rule="evenodd" clip-rule="evenodd" d="M13.1696 0.25L13.2 0.250001H14.8L14.8304 0.25C15.3646 0.24999 15.8104 0.249981 16.1747 0.27974C16.5546 0.310778 16.9112 0.377889 17.2485 0.549733C17.7659 0.813385 18.1866 1.23408 18.4503 1.75153C18.6221 2.08879 18.6892 2.44545 18.7203 2.82533C18.75 3.18956 18.75 3.6354 18.75 4.16955V4.2V4.25H21C21.4142 4.25 21.75 4.58579 21.75 5C21.75 5.41421 21.4142 5.75 21 5.75H18.75V5.8V5.83045C18.75 6.3646 18.75 6.81044 18.7203 7.17467C18.6892 7.55456 18.6221 7.91121 18.4503 8.24848C18.1866 8.76592 17.7659 9.18662 17.2485 9.45027C16.9112 9.62211 16.5546 9.68922 16.1747 9.72026C15.8104 9.75002 15.3646 9.75001 14.8305 9.75H14.8305H14.8H13.2H13.1695H13.1695C12.6354 9.75001 12.1895 9.75002 11.8253 9.72026C11.4454 9.68922 11.0888 9.62211 10.7515 9.45027C10.2341 9.18662 9.81338 8.76592 9.54973 8.24848C9.37789 7.91121 9.31078 7.55456 9.27974 7.17467C9.24998 6.81044 9.24999 6.36459 9.25 5.83044V5.8V4.2V4.16957C9.24999 3.63541 9.24998 3.18956 9.27974 2.82533C9.31078 2.44545 9.37789 2.08879 9.54973 1.75153C9.81338 1.23408 10.2341 0.813385 10.7515 0.549733C11.0888 0.377889 11.4454 0.310778 11.8253 0.27974C12.1896 0.249981 12.6354 0.24999 13.1696 0.25ZM17.25 4.2V5V5.8C17.25 6.37243 17.2494 6.75664 17.2252 7.05252C17.2018 7.33965 17.1599 7.47693 17.1138 7.56749C16.9939 7.80269 16.8027 7.99392 16.5675 8.11376C16.4769 8.1599 16.3396 8.20178 16.0525 8.22524C15.7566 8.24942 15.3724 8.25 14.8 8.25H13.2C12.6276 8.25 12.2434 8.24942 11.9475 8.22524C11.6604 8.20178 11.5231 8.1599 11.4325 8.11376C11.1973 7.99392 11.0061 7.80269 10.8862 7.56749C10.8401 7.47693 10.7982 7.33965 10.7748 7.05252C10.7506 6.75664 10.75 6.37243 10.75 5.8V4.2C10.75 3.62757 10.7506 3.24336 10.7748 2.94748C10.7982 2.66036 10.8401 2.52307 10.8862 2.43251C11.0061 2.19731 11.1973 2.00608 11.4325 1.88624C11.5231 1.8401 11.6604 1.79822 11.9475 1.77476C12.2434 1.75058 12.6276 1.75 13.2 1.75H14.8C15.3724 1.75 15.7566 1.75058 16.0525 1.77476C16.3396 1.79822 16.4769 1.8401 16.5675 1.88624C16.8027 2.00608 16.9939 2.19731 17.1138 2.43251C17.1599 2.52307 17.2018 2.66036 17.2252 2.94748C17.2494 3.24336 17.25 3.62757 17.25 4.2ZM1 16.25C0.585786 16.25 0.25 16.5858 0.25 17C0.25 17.4142 0.585786 17.75 1 17.75H3.25V17.8L3.25 17.8304C3.24999 18.3646 3.24998 18.8104 3.27974 19.1747C3.31078 19.5546 3.37789 19.9112 3.54973 20.2485C3.81338 20.7659 4.23408 21.1866 4.75153 21.4503C5.08879 21.6221 5.44545 21.6892 5.82533 21.7203C6.18952 21.75 6.6353 21.75 7.16936 21.75H7.16955H7.2H8.8H8.83045H8.83064C9.3647 21.75 9.81048 21.75 10.1747 21.7203C10.5546 21.6892 10.9112 21.6221 11.2485 21.4503C11.7659 21.1866 12.1866 20.7659 12.4503 20.2485C12.6221 19.9112 12.6892 19.5546 12.7203 19.1747C12.75 18.8105 12.75 18.3646 12.75 17.8305V17.8305V17.8V16.2V16.1695V16.1695C12.75 15.6354 12.75 15.1895 12.7203 14.8253C12.6892 14.4454 12.6221 14.0888 12.4503 13.7515C12.1866 13.2341 11.7659 12.8134 11.2485 12.5497C10.9112 12.3779 10.5546 12.3108 10.1747 12.2797C9.81044 12.25 9.36459 12.25 8.83043 12.25H8.8H7.2H7.16957C6.63541 12.25 6.18956 12.25 5.82533 12.2797C5.44545 12.3108 5.08879 12.3779 4.75153 12.5497C4.23408 12.8134 3.81338 13.2341 3.54973 13.7515C3.37789 14.0888 3.31078 14.4454 3.27974 14.8253C3.24998 15.1896 3.24999 15.6354 3.25 16.1696L3.25 16.2V16.25H1ZM4.75 17V17.8C4.75 18.3724 4.75058 18.7566 4.77476 19.0525C4.79822 19.3396 4.8401 19.4769 4.88624 19.5675C5.00608 19.8027 5.19731 19.9939 5.43251 20.1138C5.52307 20.1599 5.66035 20.2018 5.94748 20.2252C6.24336 20.2494 6.62757 20.25 7.2 20.25H8.8C9.37243 20.25 9.75664 20.2494 10.0525 20.2252C10.3396 20.2018 10.4769 20.1599 10.5675 20.1138C10.8027 19.9939 10.9939 19.8027 11.1138 19.5675C11.1599 19.4769 11.2018 19.3396 11.2252 19.0525C11.2494 18.7566 11.25 18.3724 11.25 17.8V16.2C11.25 15.6276 11.2494 15.2434 11.2252 14.9475C11.2018 14.6604 11.1599 14.5231 11.1138 14.4325C10.9939 14.1973 10.8027 14.0061 10.5675 13.8862C10.4769 13.8401 10.3396 13.7982 10.0525 13.7748C9.75664 13.7506 9.37243 13.75 8.8 13.75H7.2C6.62757 13.75 6.24336 13.7506 5.94748 13.7748C5.66035 13.7982 5.52307 13.8401 5.43251 13.8862C5.19731 14.0061 5.00608 14.1973 4.88624 14.4325C4.8401 14.5231 4.79822 14.6604 4.77476 14.9475C4.75058 15.2434 4.75 15.6276 4.75 16.2V17ZM14.25 17C14.25 16.5858 14.5858 16.25 15 16.25H21C21.4142 16.25 21.75 16.5858 21.75 17C21.75 17.4142 21.4142 17.75 21 17.75H15C14.5858 17.75 14.25 17.4142 14.25 17ZM1 4.25C0.585786 4.25 0.25 4.58579 0.25 5C0.25 5.41421 0.585786 5.75 1 5.75H7C7.41421 5.75 7.75 5.41421 7.75 5C7.75 4.58579 7.41421 4.25 7 4.25H1Z" fill="#22272F"/>
</svg>
