<svg width="79" height="70" viewBox="0 0 79 70" fill="none" xmlns="http://www.w3.org/2000/svg">
<path d="M11.3348 37.2036C11.1495 37.2451 10.9674 37.2899 10.7852 37.3346C10.1462 37.488 9.73398 38.0152 9.85859 38.5105C10.6223 41.5013 11.3764 44.4952 12.124 47.4892C12.2487 47.9845 12.8206 48.2657 13.4086 48.1251C13.5779 48.0835 13.7473 48.0452 13.9166 48.0069C14.5045 47.8695 14.888 47.3614 14.7761 46.8629C14.0955 43.853 13.4022 40.8462 12.7024 37.8395C12.5906 37.3378 11.9771 37.0534 11.3348 37.2036Z" fill="#010101"/>
<path d="M8.07883 40.5331C7.8999 40.581 7.72096 40.6289 7.54202 40.6769C6.91894 40.8462 6.51314 41.3255 6.63137 41.7441C7.05634 43.2331 7.47812 44.7253 7.89989 46.2143C8.01812 46.6329 8.59327 46.8374 9.1876 46.6776C9.35695 46.6329 9.52949 46.5849 9.69884 46.5402C10.2932 46.3836 10.6862 45.9171 10.5807 45.4985C10.1909 43.9999 9.80109 42.5014 9.40807 41.0028C9.29943 40.5778 8.70511 40.3669 8.07883 40.5331Z" fill="#2F80ED"/>
<path d="M62.5871 46.9236C62.7596 46.9524 62.9322 46.978 63.1047 47.0067C63.7054 47.1026 64.2614 46.7799 64.3477 46.2782C64.8589 43.2363 65.3638 40.188 65.8558 37.1429C65.9389 36.6412 65.4756 36.1428 64.8206 36.0373C64.632 36.0086 64.4435 35.9766 64.2582 35.9479C63.6032 35.8456 63.0152 36.1779 62.9449 36.6796C62.5168 39.7375 62.079 42.7921 61.6317 45.8436C61.5582 46.3485 61.9864 46.831 62.5871 46.9236Z" fill="#010101"/>
<path d="M66.709 45.1599C66.8847 45.1919 67.0604 45.227 67.2362 45.259C67.8465 45.3772 68.4089 45.1312 68.4951 44.703C68.7955 43.1821 69.0927 41.6611 69.3866 40.1401C69.4697 39.712 69.0192 39.2614 68.3769 39.14C68.1916 39.1049 68.0095 39.0697 67.8241 39.0346C67.1819 38.9132 66.6035 39.1688 66.53 39.6001C66.268 41.1275 66.0028 42.6548 65.7376 44.179C65.6641 44.6071 66.0987 45.0449 66.709 45.1599Z" fill="#2F80ED"/>
<path d="M63.6128 43.1053C46.8727 40.1433 29.7875 40.4692 13.3095 44.0096C13.0954 43.0223 12.8813 42.0381 12.6672 41.0508C29.5287 37.4305 47.0069 37.0918 64.1304 40.1241C63.9579 41.1179 63.7853 42.1116 63.6128 43.1053Z" fill="#010101"/>
<path d="M19.2688 66.744C14.2745 63.4241 10.1718 58.7814 7.50055 53.4165C4.81651 48.058 3.58952 41.9838 3.98893 35.9926C4.35 30.0047 6.34066 24.1413 9.67334 19.1567C13.0156 14.1816 17.6552 10.0725 23.0424 7.43318C24.3908 6.78135 25.768 6.18702 27.1931 5.72051C28.6086 5.22524 30.0656 4.86418 31.5323 4.56063C34.4719 4.00465 37.4915 3.77778 40.4823 3.99825C46.4702 4.3721 52.3208 6.4075 57.2958 9.74657C62.2581 13.108 66.3417 17.7731 68.965 23.1636C69.604 24.5184 70.2048 25.8955 70.6585 27.3238C70.7799 27.6785 70.9045 28.03 70.9972 28.3942L71.0962 28.7425L71.1346 28.8767L71.288 29.4135L67.9521 30.2922C70.3709 32.3947 72.5565 35.05 74.3778 38.1686C76.1608 35.0532 77.5795 31.4681 78.4071 27.5347L75.0712 28.4134L74.9018 27.8159L74.8603 27.6657L74.7485 27.2759C74.643 26.8733 74.5024 26.4771 74.3682 26.0809C73.8602 24.4896 73.1923 22.9527 72.4798 21.4445C69.5529 15.4342 65.0124 10.245 59.4814 6.50016C53.9408 2.77766 47.4064 0.509006 40.7379 0.0936194C37.4084 -0.152417 34.0533 0.0968169 30.7718 0.719897C29.1358 1.0554 27.5126 1.4612 25.9341 2.01079C24.3461 2.53162 22.8091 3.19304 21.3074 3.91837C15.3034 6.86123 10.1367 11.4337 6.41735 16.9775C2.70443 22.5277 0.48371 29.078 0.0811045 35.7434C-0.359844 42.4024 1.00454 49.1827 3.99532 55.1547C6.97333 61.1363 11.5394 66.3031 17.1056 70L19.2688 66.744Z" fill="black"/>
<path d="M37.5649 63.6127V45.6072C37.5649 44.0192 37.3444 42.7379 36.9035 41.7665C36.4626 40.7951 34.7371 40.3095 33.1459 40.3095H32.6154V38.7214H39.6802C40.9168 38.7214 41.8786 38.9323 42.5655 39.3573C43.2525 39.7822 43.7382 40.4884 44.0226 41.4757C44.3038 42.4631 44.4476 43.8402 44.4476 45.6072V63.6127H37.5649Z" fill="black"/>
<path d="M58.9734 40.2903V55.912C58.9734 57.8899 59.213 59.2223 59.6891 59.9093C60.1652 60.5963 60.8458 60.9414 61.7277 60.9414C62.6448 60.9414 63.4564 60.7816 64.1625 60.4653C64.8687 60.149 65.4502 59.8294 65.9103 59.5131L66.6517 60.9957C65.9455 61.6316 65.0285 62.178 63.8973 62.6381C62.7662 63.095 61.389 63.3251 59.7658 63.3251C57.363 63.3251 55.4841 62.6732 54.1261 61.3664C52.7681 60.0595 52.0876 58.1359 52.0876 55.5925V40.2871M52.0907 40.4948V33.1424L54.7396 29.9663H58.9766V40.498" fill="black"/>
<path d="M26.8256 40.284V56.9665H19.9398V28.8992C19.9398 27.3111 19.7193 26.0298 19.2783 25.0584C18.8374 24.0871 17.8213 23.6014 16.2332 23.6014H15.7028V22.0133H37.8909C39.1274 22.0133 40.0637 22.2178 40.6963 22.6236C41.3322 23.0294 41.7731 23.5599 42.0192 24.2117C42.2652 24.8667 42.3898 25.5441 42.3898 26.2503V30.7524H40.8018C40.8018 28.4582 40.2266 26.8254 39.0795 25.8541C37.9324 24.8827 36.2996 24.397 34.1811 24.397H26.8192V37.9003" fill="black"/>
<path d="M40.4918 37.6957C39.6291 37.6957 38.8878 37.4081 38.2871 36.8457C37.6831 36.277 37.3732 35.4973 37.3732 34.526C37.3732 33.4236 37.7183 32.4363 38.3989 31.5895C39.0923 30.73 40.1499 30.2954 41.5526 30.2954C42.4154 30.2954 43.1567 30.5798 43.7574 31.1454C44.3613 31.7141 44.668 32.4938 44.668 33.4651C44.668 34.5675 44.3229 35.5548 43.6423 36.4016C42.9522 37.2579 41.8945 37.6957 40.4918 37.6957Z" fill="#2F80ED"/>
<path d="M41.5494 30.4999C42.361 30.4999 43.0512 30.7651 43.6136 31.2956C44.1791 31.826 44.4603 32.5481 44.4603 33.4683C44.4603 34.526 44.1344 35.4622 43.4794 36.2738C42.8275 37.0854 41.8306 37.4912 40.4886 37.4912C39.677 37.4912 38.9868 37.226 38.4244 36.6956C37.8589 36.1652 37.5777 35.443 37.5777 34.5228C37.5777 33.4652 37.9036 32.5289 38.5586 31.7173C39.2137 30.9057 40.2106 30.4999 41.5494 30.4999ZM41.5494 30.0877C40.086 30.0877 38.9708 30.5479 38.2359 31.4585C37.5266 32.3436 37.1655 33.3725 37.1655 34.5228C37.1655 35.5549 37.4946 36.3856 38.1432 36.9927C38.7855 37.5935 39.5747 37.897 40.4886 37.897C41.9552 37.897 43.0704 37.4369 43.8021 36.5262C44.5114 35.6443 44.8725 34.6123 44.8725 33.462C44.8725 32.4299 44.5434 31.5991 43.8947 30.992C43.2557 30.3913 42.4665 30.0877 41.5494 30.0877Z" fill="white"/>
<path d="M62.3539 63.0918C62.8268 62.964 63.2199 62.8266 63.6384 62.6732C64.0506 62.5199 64.4564 62.3569 64.8558 62.178C65.6547 61.8201 66.4343 61.4111 67.1852 60.9446C67.9329 60.4749 68.6518 59.9509 69.3228 59.3534C69.6583 59.0562 69.9779 58.7367 70.2846 58.4044C70.6521 57.9794 70.7032 57.9251 70.8502 57.7301L72.2082 58.7942C72.7258 56.6949 72.6172 54.5732 71.9653 52.8989C70.8182 54.308 69.3708 55.1132 67.9521 55.4583L69.3101 56.5223C69.1887 56.6853 69.1439 56.73 68.8372 57.0847C68.5752 57.3627 68.3067 57.6343 68.0192 57.8899C67.444 58.4012 66.8146 58.8645 66.1499 59.2831C65.4853 59.6984 64.7824 60.0659 64.0602 60.3886C63.6992 60.5516 63.3317 60.6986 62.961 60.836C62.5968 60.9702 62.2006 61.1044 61.8683 61.1938L62.3539 63.0918Z" fill="black"/>
<path d="M10.8333 61.7466C5.29907 55.3848 1.94722 47.0739 1.94722 37.9769C1.94722 17.9713 18.1665 1.752 38.1721 1.752C54.0048 1.752 67.4665 11.9098 72.3936 26.0649" stroke="#2F80ED" stroke-width="1.2591" stroke-miterlimit="10" stroke-linecap="round" stroke-linejoin="round"/>
</svg>
