<svg width="18" height="18" viewBox="0 0 18 18" fill="none" xmlns="http://www.w3.org/2000/svg">
<g id="19382230491553666157" clip-path="url(#clip0_419_3449)">
<g id="Page-1">
<g id="Dribbble-Light-Preview">
<g id="icons">
<path id="male-[#1364]" fill-rule="evenodd" clip-rule="evenodd" d="M6.3 16.2045C3.8187 16.2045 1.8 14.1858 1.8 11.7045C1.8 9.2232 3.8187 7.2045 6.3 7.2045C8.7813 7.2045 10.8 9.2232 10.8 11.7045C10.8 14.1858 8.7813 16.2045 6.3 16.2045ZM10.8 0V1.8H14.9274L10.0674 6.66178C9.0162 5.87428 7.7148 5.40363 6.3 5.40363C2.8206 5.40363 0 8.22423 0 11.7036C0 15.183 2.8206 18.0045 6.3 18.0045C9.7794 18.0045 12.6 15.1839 12.6 11.7045C12.6 10.2897 12.1275 8.98829 11.3409 7.93619L16.2 3.07705V7.2H18V0H10.8Z" fill="#A5A5A5"/>
</g>
</g>
</g>
</g>
<defs>
<clipPath id="clip0_419_3449">
<rect width="18" height="18" fill="white"/>
</clipPath>
</defs>
</svg>
