<svg width="21" height="22" viewBox="0 0 21 22" fill="none" xmlns="http://www.w3.org/2000/svg">
<path fill-rule="evenodd" clip-rule="evenodd" d="M10.9641 1.78596C10.7078 1.52968 10.2923 1.52968 10.036 1.78596L6.536 5.28596C6.27972 5.54224 6.27972 5.95776 6.536 6.21404C6.79228 6.47032 7.20779 6.47032 7.46408 6.21404L9.84379 3.83433L9.84379 13.625C9.84379 13.9874 10.1376 14.2813 10.5 14.2813C10.8625 14.2813 11.1563 13.9874 11.1563 13.625L11.1563 3.83433L13.536 6.21404C13.7923 6.47032 14.2078 6.47032 14.4641 6.21404C14.7204 5.95776 14.7204 5.54224 14.4641 5.28596L10.9641 1.78596ZM6.56254 8.59375L6.43741 8.59373C5.33656 8.59349 4.63489 8.59333 4.04354 8.77272C2.7152 9.17567 1.6757 10.2152 1.27275 11.5435C1.09337 12.1349 1.09352 12.8365 1.09377 13.9374L1.09379 14.0625V14.5L1.09379 14.524L1.09379 14.524C1.09378 15.3191 1.09378 15.9492 1.12861 16.4597C1.16419 16.9812 1.23831 17.4256 1.41016 17.8405C1.832 18.8589 2.64111 19.668 3.65951 20.0899C4.0744 20.2617 4.51881 20.3358 5.04032 20.3714C5.55083 20.4063 6.181 20.4063 6.97612 20.4062H7.00004L14 20.4063H14.0239H14.024C14.8191 20.4063 15.4492 20.4063 15.9598 20.3714C16.4813 20.3358 16.9257 20.2617 17.3406 20.0899C18.359 19.668 19.1681 18.8589 19.5899 17.8405C19.7618 17.4256 19.8359 16.9812 19.8715 16.4597C19.9063 15.9492 19.9063 15.319 19.9063 14.5239V14.5V14.0625L19.9063 13.9374C19.9065 12.8365 19.9067 12.1349 19.7273 11.5435C19.3244 10.2152 18.2849 9.17567 16.9565 8.77272C16.3652 8.59333 15.6635 8.59349 14.5627 8.59373L14.4375 8.59375H14C13.6376 8.59375 13.3438 8.88756 13.3438 9.25C13.3438 9.61244 13.6376 9.90625 14 9.90625H14.4375C15.7064 9.90625 16.1953 9.91337 16.5755 10.0287C17.4844 10.3044 18.1956 11.0156 18.4713 11.9245C18.5867 12.3047 18.5938 12.7936 18.5938 14.0625V14.5C18.5938 15.3244 18.5934 15.9098 18.562 16.3704C18.531 16.8251 18.4719 17.1099 18.3773 17.3383C18.0887 18.0351 17.5351 18.5887 16.8383 18.8773C16.61 18.9719 16.3251 19.0309 15.8704 19.062C15.4098 19.0934 14.8244 19.0938 14 19.0938L7.00004 19.0938C6.17566 19.0938 5.59024 19.0934 5.12966 19.062C4.67498 19.0309 4.39009 18.9718 4.16178 18.8773C3.46498 18.5887 2.91138 18.0351 2.62275 17.3383C2.52819 17.1099 2.46909 16.8251 2.43807 16.3704C2.40664 15.9098 2.40629 15.3244 2.40629 14.5V14.0625C2.40629 12.7936 2.41341 12.3047 2.52874 11.9245C2.80444 11.0156 3.51567 10.3044 4.42454 10.0287C4.80472 9.91337 5.29367 9.90625 6.56254 9.90625L7.00004 9.90625C7.36247 9.90625 7.65629 9.61244 7.65629 9.25C7.65629 8.88756 7.36247 8.59375 7.00004 8.59375H6.56254Z" fill="#191E3A"/>
</svg>
